<?xml version="1.0" encoding="UTF-8" standalone="no"?><!DOCTYPE svg PUBLIC "-//W3C//DTD SVG 1.1//EN" "http://www.w3.org/Graphics/SVG/1.1/DTD/svg11.dtd"><svg width="100%" height="100%" viewBox="0 0 257 257" version="1.1" xmlns="http://www.w3.org/2000/svg" xmlns:xlink="http://www.w3.org/1999/xlink" xml:space="preserve" xmlns:serif="http://www.serif.com/" style="fill-rule:evenodd;clip-rule:evenodd;stroke-linejoin:round;stroke-miterlimit:2;"><rect id="Mesa-de-trabajo3" serif:id="Mesa de trabajo3" x="0.977" y="0.296" width="256" height="256" style="fill:none;"/><path d="M219.925,75.774l-90.982,-52.477l-90.892,52.529l90.983,52.476l90.891,-52.528Z" style="fill:#d68478;"/><path d="M128.988,128.276l-90.937,-52.45l0,104.953l90.937,52.45l0,-104.953Z" style="fill:#c44e3e;"/><g><path d="M219.925,75.774l-90.891,52.528l-0,105.005l90.891,-52.528l0,-105.005Z" style="fill:#923f35;"/><path d="M174.479,102.038l-45.445,26.264l-0,52.503l45.445,-26.264l0,-52.503Z" style="fill:#923f35;"/></g><g><path d="M82.799,154.983l46.212,26.654l46.167,-26.68l-46.213,-26.655l-46.166,26.681Z" style="fill:#d68478;"/><path d="M105.882,141.643l23.106,13.327l23.084,-13.341l-23.107,-13.327l-23.083,13.341Z" style="fill:#e1d8a0;"/></g><g><path d="M128.988,128.316l46.19,26.641l-0,-53.309l-46.19,-26.641l0,53.309Z" style="fill:#c44e3e;"/><path d="M128.965,128.316l23.095,13.32l0,-26.654l-23.095,-13.321l0,26.655Z" style="fill:#d5c777;"/></g><g><path d="M82.799,154.983l46.166,-26.681l0,-53.335l-46.166,26.681l-0,53.335Z" style="fill:#923f35;"/><path d="M105.882,141.643l23.083,-13.341l0,-26.667l-23.083,13.34l0,26.668Z" style="fill:#9e945e;"/></g></svg>